<svg width="512" height="480" viewBox="0 0 512 480" fill="none" xmlns="http://www.w3.org/2000/svg">
<path d="M256 40C227.985 40 200.244 45.1732 174.361 55.2241C148.478 65.275 124.96 80.0069 105.151 98.5786C65.1429 136.086 42.6667 186.957 42.6667 240C42.6667 293.043 65.1429 343.914 105.151 381.421C124.96 399.993 148.478 414.725 174.361 424.776C200.244 434.827 227.985 440 256 440C312.58 440 366.842 418.929 406.85 381.421C446.857 343.914 469.333 293.043 469.333 240C469.333 213.736 463.815 187.728 453.094 163.463C442.373 139.198 426.659 117.15 406.85 98.5786C387.04 80.0069 363.522 65.275 337.639 55.2241C311.756 45.1732 284.015 40 256 40M345.6 324L234.667 260V140H266.667V244L362.667 298L345.6 324Z" fill="white"/>
</svg>
