<svg width="512" height="512" viewBox="0 0 512 512" fill="none" xmlns="http://www.w3.org/2000/svg">
<g clip-path="url(#clip0_1_21)">
<path d="M64 85.3333H512V42.6667H64C28.7147 42.6667 0 71.3813 0 106.667V405.333C0 440.619 28.7147 469.333 64 469.333H512V128H64C52.224 128 42.6667 118.421 42.6667 106.667C42.6667 94.912 52.224 85.3333 64 85.3333ZM426.667 277.333C438.443 277.333 448 286.891 448 298.667C448 310.443 438.443 320 426.667 320C414.891 320 405.333 310.443 405.333 298.667C405.333 286.891 414.891 277.333 426.667 277.333Z" fill="white"/>
</g>
<defs>
<clipPath id="clip0_1_21">
<rect width="512" height="512" fill="white"/>
</clipPath>
</defs>
</svg>
