<svg width="682" height="567" viewBox="0 0 682 567" fill="none" xmlns="http://www.w3.org/2000/svg">
<path d="M127.875 496.125C116.035 496.125 105.975 492.676 97.6965 485.777C89.3988 478.895 85.25 470.531 85.25 460.688V415.8L198.917 331.931V496.125H127.875ZM227.333 496.125V401.625H454.667V496.125H227.333ZM483.083 496.125V302.4L361.602 212.625L447.562 149.428L582.542 249.244C587.278 252.788 590.83 256.82 593.198 261.34C595.566 265.876 596.75 270.703 596.75 275.822V460.688C596.75 470.531 592.601 478.895 584.303 485.777C576.025 492.676 565.965 496.125 554.125 496.125H483.083ZM85.25 383.906V275.822C85.25 270.703 86.434 265.781 88.8021 261.056C91.1701 256.331 94.7222 252.394 99.4583 249.244L312.583 92.1375C316.372 88.9875 320.758 86.7195 325.74 85.3335C330.704 83.9633 335.79 83.2781 341 83.2781C346.21 83.2781 351.306 83.9633 356.288 85.3335C361.252 86.7195 365.628 88.9875 369.417 92.1375L426.25 134.072L85.25 383.906Z" fill="white"/>
</svg>
