<svg width="512" height="512" viewBox="0 0 512 512" fill="none" xmlns="http://www.w3.org/2000/svg">
<g clip-path="url(#clip0_1_59)">
<path d="M256 0C114.842 0 0 114.842 0 256C0 397.158 114.842 512 256 512C397.158 512 512 397.158 512 256C512 114.842 397.158 0 256 0ZM256 467.478C139.39 467.478 44.522 372.61 44.522 256C44.522 139.39 139.39 44.522 256 44.522C372.61 44.522 467.478 139.39 467.478 256C467.478 372.61 372.61 467.478 256 467.478Z" fill="white"/>
<path d="M256 72.348C154.739 72.348 72.3479 154.739 72.3479 256C72.3479 357.261 154.739 439.652 256 439.652C357.261 439.652 439.652 357.261 439.652 256C439.652 154.739 357.261 72.348 256 72.348ZM263.805 241.239C287.599 253.815 317.218 269.478 317.218 300.522C317.218 328.478 298.349 352.07 272.696 359.364V367.304C272.696 376.521 265.217 384 256 384C246.783 384 239.304 376.521 239.304 367.304V359.364C213.652 352.07 194.782 328.478 194.782 300.522C194.782 291.305 202.261 283.826 211.478 283.826C220.695 283.826 228.174 291.305 228.174 300.522C228.174 315.87 240.652 328.348 256 328.348C271.348 328.348 283.826 315.87 283.826 300.522C283.826 289.587 265.717 280.022 248.195 270.761C224.401 258.185 194.782 242.522 194.782 211.478C194.782 183.522 213.651 159.93 239.304 152.636V144.696C239.304 135.479 246.783 128 256 128C265.217 128 272.696 135.479 272.696 144.696V152.636C298.348 159.93 317.218 183.522 317.218 211.478C317.218 220.695 309.739 228.174 300.522 228.174C291.305 228.174 283.826 220.695 283.826 211.478C283.826 196.13 271.348 183.652 256 183.652C240.652 183.652 228.174 196.13 228.174 211.478C228.174 222.413 246.283 231.978 263.805 241.239Z" fill="white"/>
</g>
<defs>
<clipPath id="clip0_1_59">
<rect width="512" height="512" fill="white"/>
</clipPath>
</defs>
</svg>
