<svg width="512" height="512" viewBox="0 0 512 512" fill="none" xmlns="http://www.w3.org/2000/svg">
<g clip-path="url(#clip0_1_25)">
<path d="M279.211 108.459C301.931 93.6107 341.333 61.504 341.333 17.0667V0H170.667V17.0667C170.667 61.504 210.069 93.6107 232.789 108.459C118.357 126.037 21.3333 269.44 21.3333 384C21.3333 454.592 78.7413 512 149.333 512H362.667C433.259 512 490.667 454.592 490.667 384C490.667 269.44 393.643 126.037 279.211 108.459ZM227.051 293.547L291.947 304.363C320.555 309.12 341.333 333.653 341.333 362.667C341.333 397.952 312.619 426.667 277.333 426.667V448H234.667V426.667C199.381 426.667 170.667 397.952 170.667 362.667H213.333C213.333 374.421 222.912 384 234.667 384H277.333C289.088 384 298.667 374.421 298.667 362.667C298.667 354.603 292.885 347.776 284.928 346.453L220.032 335.637C191.424 330.88 170.645 306.347 170.645 277.333C170.645 242.048 199.36 213.333 234.645 213.333V192H277.312V213.333C312.597 213.333 341.312 242.048 341.312 277.333H298.645C298.645 265.579 289.067 256 277.312 256H234.645C222.891 256 213.312 265.579 213.312 277.333C213.312 285.397 219.093 292.224 227.051 293.547V293.547Z" fill="white"/>
</g>
<defs>
<clipPath id="clip0_1_25">
<rect width="512" height="512" fill="white"/>
</clipPath>
</defs>
</svg>
