<svg width="170" height="185" viewBox="0 0 170 185" fill="none" xmlns="http://www.w3.org/2000/svg">
<path d="M109.302 128.182C108.824 121.706 108.69 115.209 108.9 108.718L108.893 109.004C114.708 102.99 118.334 95.2068 119.193 86.896L119.209 86.7342C121.828 86.5183 125.962 83.9746 127.168 73.8921C127.532 72.1556 127.394 70.3519 126.772 68.6901C126.15 67.0283 125.068 65.5765 123.652 64.5033L123.629 64.4879C127.894 51.6921 136.75 12.1021 107.239 8.01667C104.202 2.69792 96.4286 0 86.3214 0C45.8845 0.74 41.0086 30.4556 49.8486 64.4879C48.4213 65.571 47.3326 67.0371 46.7099 68.7148C46.0873 70.3924 45.9565 72.2123 46.3327 73.9615L46.325 73.8998C47.5614 83.9669 51.6645 86.526 54.2841 86.7419C55.203 95.1452 58.9449 102.991 64.9014 109.004C65.0972 115.608 64.9476 122.218 64.4532 128.806L64.4918 128.182C56.4709 149.642 2.47273 143.614 0 185H173.539C171.051 143.614 117.3 149.642 109.295 128.182H109.302Z" fill="#747171"/>
</svg>
