<svg width="384" height="715" viewBox="0 0 384 715" fill="none" xmlns="http://www.w3.org/2000/svg">
<path d="M365.52 271.6L59.22 5.72759C43.16 -8.21376 24.07 4.72247 16.58 34.6154L3.01001 88.7428C-4.47999 118.636 2.47001 154.169 18.53 168.11L236.96 357.686L18.49 547.337C2.47001 561.241 -4.45999 596.681 3.01001 626.499L16.53 680.478C24 710.296 43.04 723.195 59.06 709.291L365.53 443.289C371.051 438.498 375.722 430.874 378.996 421.312C382.269 411.75 384.009 400.648 384.01 389.31V325.597C384 302.423 376.8 281.372 365.52 271.6V271.6Z" fill="#575757"/>
</svg>
