<svg width="512" height="512" viewBox="0 0 512 512" fill="none" xmlns="http://www.w3.org/2000/svg">
<g clip-path="url(#clip0_1_23)">
<path d="M298.667 256C298.667 279.531 279.531 298.667 256 298.667C232.469 298.667 213.333 279.531 213.333 256C213.333 232.469 232.469 213.333 256 213.333C279.531 213.333 298.667 232.469 298.667 256ZM512.021 331.691C512.021 375.701 484.288 415.829 443.029 431.552C414.421 442.475 387.392 448 362.645 448C327.787 448 296.555 439.488 266.368 431.253C237.611 423.403 210.475 416 181.333 416C147.819 416 126.677 418.155 108.395 423.445C82.6666 430.848 55.616 425.856 34.1546 409.707C12.4586 393.387 0.0213013 368.469 0.0213013 341.333V180.309C0.0213013 136.299 27.7333 96.1707 68.992 80.448C97.6 69.5253 124.651 64 149.376 64C184.235 64 215.445 72.512 245.653 80.7467C274.411 88.5973 301.547 96 330.688 96C364.181 96 385.344 93.8453 403.627 88.5547C429.397 81.152 456.448 86.144 477.888 102.293C499.584 118.613 512.021 143.531 512.021 170.667V331.691ZM128.021 298.667C128.021 286.891 118.464 277.333 106.688 277.333C94.912 277.333 85.3546 286.891 85.3546 298.667C85.3546 310.443 94.912 320 106.688 320C118.464 320 128.021 310.443 128.021 298.667ZM128.021 170.667C128.021 158.891 118.464 149.333 106.688 149.333C94.912 149.333 85.3546 158.891 85.3546 170.667C85.3546 182.443 94.912 192 106.688 192C118.464 192 128.021 182.443 128.021 170.667ZM341.355 256C341.355 208.939 303.083 170.667 256.021 170.667C208.96 170.667 170.688 208.939 170.688 256C170.688 303.061 208.96 341.333 256.021 341.333C303.083 341.333 341.355 303.061 341.355 256ZM426.688 341.333C426.688 329.557 417.131 320 405.355 320C393.579 320 384.021 329.557 384.021 341.333C384.021 353.109 393.579 362.667 405.355 362.667C417.131 362.667 426.688 353.109 426.688 341.333ZM426.688 213.333C426.688 201.557 417.131 192 405.355 192C393.579 192 384.021 201.557 384.021 213.333C384.021 225.109 393.579 234.667 405.355 234.667C417.131 234.667 426.688 225.109 426.688 213.333Z" fill="white"/>
</g>
<defs>
<clipPath id="clip0_1_23">
<rect width="512" height="512" fill="white"/>
</clipPath>
</defs>
</svg>
