<!-- icon666.com - MILLIONS vector ICONS FREE --><svg viewBox="0 0 64 64" xmlns="http://www.w3.org/2000/svg"><g id="flat"><path d="m4 58h56v-38l-27.901-3-28.099 3z" fill="#c6f4f3"></path><path d="m32 17.01v40.99h28v-38l-27.901-3z" fill="#9bebe6"></path><path d="m4 8h56v12h-56z" fill="#578bff"></path><path d="m32 8h28v12h-28z" fill="#4977f0"></path><path d="m24 13h16v2h-16z" fill="#647378"></path><g fill="#50555a"><path d="m39 38h17v2h-17z"></path><path d="m39 27h17v2h-17z"></path><path d="m39 44h17v2h-17z"></path><path d="m39 50h17v2h-17z"></path></g><path d="m12 41h20v10h-20z" fill="#ff416e"></path><path d="m10 35h24v6h-24z" fill="#ff6e91"></path><path d="m32 13h8v2h-8z" fill="#50555a"></path><path d="m17 13h2v2h-2z" fill="#82dc38"></path><path d="m13 13h2v2h-2z" fill="#ff6e91"></path><path d="m9 13h2v2h-2z" fill="#ffed69"></path><path d="m22 35h12v6h-12z" fill="#ff416e"></path><path d="m22 41h10v10h-10z" fill="#f00023"></path><path d="m20 35h4v16h-4z" fill="#ffd723"></path><path d="m22 35h2v16h-2z" fill="#ffaa1e"></path><path d="m30.8 27.619a4.528 4.528 0 0 0 -7.732 1.373l-1.068 3.008-1.067-3.019a4.532 4.532 0 1 0 -7.171 5.022 4.545 4.545 0 0 0 2.135.989l6.103 1.022 6.108-1.02a4.54 4.54 0 0 0 2.129-.988 4.541 4.541 0 0 0 .563-6.387zm-14.561 5.4a2.532 2.532 0 1 1 2.816-3.365l1.441 4.076zm12.717-.55a2.51 2.51 0 0 1 -1.181.549l-4.263.712 1.438-4.067a2.532 2.532 0 1 1 4.006 2.806z" fill="#ffed69"></path><path d="m24.409 27.061a4.555 4.555 0 0 0 -1.345 1.931l-1.064 3.008v4.012l6.108-1.02a4.54 4.54 0 0 0 2.129-.988 4.533 4.533 0 1 0 -5.829-6.944zm4.543 5.412a2.51 2.51 0 0 1 -1.181.549l-4.263.712 1.438-4.067a2.532 2.532 0 1 1 4.006 2.806z" fill="#ffd723"></path></g></svg>