<svg width="170" height="185" viewBox="0 0 170 185" fill="none" xmlns="http://www.w3.org/2000/svg">
<path d="M113.333 131.042V107.917H63.75V77.0834H113.333V53.9584L148.75 92.5L113.333 131.042ZM99.1667 15.4167C102.924 15.4167 106.527 17.0409 109.184 19.9321C111.841 22.8233 113.333 26.7446 113.333 30.8334V46.25H99.1667V30.8334H35.4167V154.167H99.1667V138.75H113.333V154.167C113.333 158.255 111.841 162.177 109.184 165.068C106.527 167.959 102.924 169.583 99.1667 169.583H35.4167C31.6594 169.583 28.0561 167.959 25.3993 165.068C22.7426 162.177 21.25 158.255 21.25 154.167V30.8334C21.25 26.7446 22.7426 22.8233 25.3993 19.9321C28.0561 17.0409 31.6594 15.4167 35.4167 15.4167H99.1667Z" fill="#747171"/>
</svg>
