<!-- icon666.com - MILLIONS vector ICONS FREE --><svg id="Layer_1" viewBox="0 0 512 512" xmlns="http://www.w3.org/2000/svg" data-name="Layer 1"><g fill-rule="evenodd"><g fill="#d1e7ff"><path d="m221.166 398.911h-11.024l1.538-47.245a72.665 72.665 0 0 0 -22.019-55.3l-63.939-63.321a19.991 19.991 0 0 0 -3.033-2.473l-.764-.506-16.687-130.481c-1.877-14.679-8.777-27.157-21.826-34.533l-8.264-4.671a19.825 19.825 0 0 0 -29.257 13.719l-38.166 209.97a13.017 13.017 0 0 0 2.055 9.654l71.82 105.187h-19.613a13 13 0 0 0 -13 13v85.089a13 13 0 0 0 13 13h159.179a13 13 0 0 0 13-13v-85.089a13 13 0 0 0 -13-13z" fill="#d1e7ff" style="fill: rgb(97, 139, 184);"></path><path d="m504.272 284.07-38.172-209.97a19.823 19.823 0 0 0 -29.25-13.717l-8.27 4.672c-13.049 7.37-19.943 19.859-21.819 34.532l-16.683 130.475-.764.506a20.034 20.034 0 0 0 -3.037 2.473l-63.942 63.321a72.658 72.658 0 0 0 -22.016 55.3l1.535 47.244h-11.024a13 13 0 0 0 -13 13v85.094a13 13 0 0 0 13 13h159.179a13 13 0 0 0 13-13v-85.089a13 13 0 0 0 -13-13h-19.616l71.826-105.187a13.016 13.016 0 0 0 2.053-9.654z" fill="#d1e7ff" style="fill: rgb(97, 139, 184);"></path><path d="m383.429 129.42a127.429 127.429 0 1 0 -127.429 127.429 127.571 127.571 0 0 0 127.429-127.429z" fill="#d1e7ff" style="fill: rgb(97, 139, 184);"></path></g><path d="m206.167 482h-129.18v-55.09h129.18zm-101.983-99.679-67.808-99.311 34.984-192.461c2.484 1.9 5.18 5.352 6.106 12.58l16.757 131.031-.028.03-5.427 7.38a43.677 43.677 0 0 0 -4.527 44.811l33.241 71.85a15 15 0 1 0 27.227-12.592l-33.239-71.859a13.523 13.523 0 0 1 1.276-14.18l57.213 56.649c9.686 9.6 14.179 20.881 13.735 34.5l-1.5 46.16h-71.394a45.243 45.243 0 0 0 -6.619-14.59zm116.982 14.59h-8.958l1.471-45.18a74.652 74.652 0 0 0 -22.611-56.791l-63.939-63.321a22.058 22.058 0 0 0 -3.336-2.719l-16.571-129.569c-2.085-16.31-9.98-28.771-22.826-36.02l-8.264-4.672a21.823 21.823 0 0 0 -32.207 15.1l-38.167 209.972a15 15 0 0 0 2.371 11.14l69.687 102.06h-15.829a15 15 0 0 0 -15 15v85.089a15 15 0 0 0 15 15h159.179a15 15 0 0 0 15-15v-85.09a15 15 0 0 0 -15-15zm186.654-14.59a45.079 45.079 0 0 0 -6.621 14.59h-71.388l-1.512-46.16c-.44-13.621 4.051-24.9 13.74-34.5l57.21-56.649a13.511 13.511 0 0 1 1.281 14.18l-33.239 71.859a15 15 0 1 0 27.229 12.592l33.239-71.85a43.68 43.68 0 0 0 -4.529-44.811l-5.43-7.38c-.01-.009-.01-.021-.021-.03l16.75-131.031c.93-7.228 3.632-10.678 6.11-12.58l34.981 192.459zm27.19 99.679h-129.18v-55.09h129.18zm71.23-198.288-38.17-209.972a21.823 21.823 0 0 0 -32.2-15.1l-8.27 4.672c-12.84 7.249-20.739 19.71-22.82 36.02l-16.569 129.568a22.145 22.145 0 0 0 -3.341 2.719l-63.941 63.321a74.661 74.661 0 0 0 -22.609 56.791l1.469 45.18h-8.958a15 15 0 0 0 -15 15v85.089a15 15 0 0 0 15 15h159.179a15 15 0 0 0 15-15v-85.09a15 15 0 0 0 -15-15h-15.829l69.69-102.06a14.959 14.959 0 0 0 2.369-11.14zm-203.931-127.922c-.369 16.069-11.148 32.29-31.31 37.711v6.69a15 15 0 0 1 -30 0v-6.851c-16.8-4.74-29.255-17.27-31.026-32.78a15 15 0 1 1 29.807-3.4c.383 3.349 6.892 8.229 16.219 8.229 9.769 0 16.175-4.039 16.319-10.289.108-4.591-3.684-10.131-14.722-10.64-.727-.029-1.423-.038-2.115-.059-1.572-.021-3.347-.062-5.427-.25-27.667-2.641-41.233-23.14-40.335-42.032.744-15.619 11.581-31.388 31.281-36.749v-6.71a15 15 0 1 1 30 0v6.859c16.657 4.722 29.09 17.121 30.992 32.472a15 15 0 0 1 -29.775 3.679c-.415-3.35-6.937-8.209-16.216-8.209-9.618 0-16.022 3.959-16.313 10.09-.208 4.348 3.128 9.769 13.211 10.729.925.089 1.94.11 3.116.131.971.018 1.949.039 2.969.08 29.046 1.349 43.778 21.8 43.326 41.3zm-46.309 73.06a99.425 99.425 0 1 0 -99.426-99.431 99.544 99.544 0 0 0 99.426 99.431zm129.429-99.431c0-71.36-58.06-129.419-129.429-129.419s-129.427 58.06-129.427 129.42a129.428 129.428 0 1 0 258.856 0z" fill="#2e58ff" style="fill: rgb(229, 237, 126);"></path></g></svg>